<?xml version="1.0" encoding="utf-8"?>
<!-- Generator: Adobe Illustrator 24.1.2, SVG Export Plug-In . SVG Version: 6.00 Build 0)  -->
<svg id = "logo" version="1.1" xmlns="http://www.w3.org/2000/svg" xmlns:xlink="http://www.w3.org/1999/xlink" x="0px" y="0px" viewBox="0 0 580 80.43" style="enable-background:new 0 0 510.09 80.43;" xml:space="preserve">
	<text transform="matrix(1 0 0 1 81 61.6744)" class="text">
		Нож Дануолла
	</text>
	<g class = "mark">
		<path d="M81.66,0c-2.39,3.68-4.35,7.75-7.26,10.96C65.67,20.59,56.58,29.9,47.59,39.3c-0.78,0.82-0.97,1.5-0.57,2.59   c1.63,4.46,0.49,9.17-2.97,12.22c-3.73,3.28-7.94,3.81-12.45,1.81c-0.89-0.4-1.44-0.32-2.14,0.33c-4.54,4.23-9.12,8.41-13.69,12.61   c-0.28,0.25-0.56,0.49-1.14,0.99c3.63-8.38,9.06-14.94,15.4-20.99c1.41,3.06,3.78,4.56,7.14,4.37c3.05-0.18,5.93-2.69,6.58-5.7   c0.74-3.43-0.71-6.73-3.66-8.33c-2.97-1.61-6.46-1.12-8.76,1.12c-1.33,1.3-0.31,2.34,0.26,3.41c-1.97,0.36-3.85,0.7-5.71,1.03   c-0.33-1.67-0.7-3.53-1.09-5.52c1.72,0.54,2.8-0.56,4.04-1.71c3.48-3.22,7.56-3.86,11.97-2.18c0.87,0.33,1.49,0.51,2.31-0.24   c12.55-11.52,25.13-23,37.71-34.49c0.2-0.18,0.35-0.41,0.52-0.61C81.45,0,81.56,0,81.66,0z"/>
		<path d="M0,9.15c7.17,4.95,14.14,10.13,19.84,16.83c1.92,2.26,2.36,2.2,4.98,0.66c5.51-3.23,11.36-4.23,17.56-2.46   c1.79,0.51,3.29,0.12,4.37-1.32c1.62-2.16,3.1-4.42,4.81-6.88c-1.03,0-1.74,0-2.96,0c3.28-2.73,6.2-5.16,9.12-7.59   c0.08,0.07,0.16,0.13,0.25,0.2c-0.16,0.38-0.29,0.77-0.47,1.13c-2.77,5.48-5.45,11.02-8.37,16.42c-0.97,1.8-2.56,3.26-4.09,4.8   c-0.08-2.14-1.34-2.84-3-3.3c-5.79-1.61-11.2-0.86-16.21,2.48c-2.22,1.48-2.25,1.92-0.51,3.87c0.14,0.16,0.24,0.34,0.36,0.51   c-0.09,0.15-0.18,0.3-0.27,0.44c-1.32-0.74-2.85-1.26-3.92-2.27C14.04,25.68,6.31,18.94,0.6,10.32C0.46,10.1,0.2,9.97,0,9.8   C0,9.58,0,9.36,0,9.15z"/>
		<path d="M74.17,21.85c-1.9,3.34-4.34,5.85-7.09,8.11c-2.29,1.88-2.24,2-1.27,4.7c3.67,10.16,2.51,19.77-3.38,28.81   c-1.5,2.3-1.52,3.1,0.22,5.23c2.76,3.37,5.57,6.69,8.36,10.03c0.36,0.44,0.72,0.88,1.08,1.32c-0.11,0.13-0.22,0.26-0.33,0.4   c-2.5-1.76-5.16-3.33-7.45-5.33c-3.52-3.07-6.71-6.52-10.17-9.66c-1.93-1.75-3.11-3.87-4.12-6.48c0.49,0.24,0.8,0.35,1.07,0.53   c1.17,0.79,2.29,1.66,3.5,2.38c2.73,1.63,3.98,1.35,5.63-1.42c4.68-7.81,5.45-16.03,2.37-24.59c-0.78-2.17-1.76-2.58-3.91-1.61   c-1.91,0.85-3.76,1.86-5.63,2.8c-0.11-0.1-0.21-0.19-0.32-0.29c1.38-1.45,2.54-3.23,4.17-4.3c5.44-3.6,11.04-6.95,16.59-10.39   C73.61,21.98,73.77,21.97,74.17,21.85z"/>
		<path d="M47.74,9.95c-1.83,4-2.03,8.69-5.25,12.19c-0.21-0.22-0.33-0.29-0.33-0.36c-0.08-3.21-0.38-3.58-3.63-3.84   c-4.12-0.33-8.15,0.11-12.01,1.67c-2.68,1.08-2.95,1.67-2.1,4.39c0.06,0.19,0.05,0.41,0.09,0.79c-1.55-0.43-2.68-1.09-3.54-2.42   c-3.59-5.51-6.01-11.54-7.99-17.86c0.3,0.36,0.62,0.71,0.9,1.09c2.46,3.33,4.97,6.62,7.32,10.02c0.89,1.29,1.92,1.57,3.2,1.06   c5.11-2.03,10.38-2.64,15.85-2.27c1.08,0.07,2.35-0.87,3.35-1.6c1.31-0.96,2.43-2.16,3.63-3.26C47.39,9.67,47.56,9.81,47.74,9.95z"/>
		<path d="M0.62,25.21c8.35,2.62,16.02,6.36,22.57,12.12c-0.04,0.14-0.09,0.28-0.13,0.41c-2.03-0.65-4.26-0.96-6.05-2.01   c-5.18-3.06-10.19-6.42-15.26-9.67C1.35,25.82,0.99,25.5,0.62,25.21z"/>
		<path d="M51.08,45.84c-0.01-2.2,1.59-3.81,3.79-3.81c2.05,0,3.76,1.66,3.81,3.68c0.05,1.99-1.82,3.88-3.84,3.88   C52.83,49.59,51.09,47.85,51.08,45.84z M56.76,45.69c-0.94-0.58-1.48-1.16-2.01-1.16c-0.39,0-1.14,0.86-1.07,1.2   c0.1,0.52,0.76,1.24,1.23,1.28C55.36,47.04,55.88,46.34,56.76,45.69z"/>
		<path d="M39.84,45.79c0.01,1.68-1.52,3.23-3.21,3.25c-1.87,0.02-3.34-1.4-3.36-3.23c-0.02-1.89,1.39-3.31,3.26-3.3   C38.41,42.52,39.83,43.93,39.84,45.79z"/>
		<path d="M18.46,51.74c-2.44,3.86-4.88,7.73-7.33,11.59c-0.18-0.08-0.36-0.17-0.54-0.25c1.02-2.69,2.04-5.38,3.04-8.02   c-1.3,0.56-2.8,1.21-4.3,1.85C11.78,54.21,14.94,52.8,18.46,51.74z"/>
		<path d="M23.6,52.37c-1.86,2.2-3.71,4.41-5.57,6.61c-0.12-0.11-0.25-0.21-0.37-0.32C18.17,56.55,20.93,53.38,23.6,52.37z"/>
		<path d="M13.55,60.45c1.5-1.66,3-3.33,4.5-4.99C17.98,57.47,15.75,60.01,13.55,60.45z"/>
	</g>
	<style>
		.text {
		font-family: "Gismonda Cyr";
		font-size: 74px;
	}	
	</style
</svg>
