<?xml version="1.0" encoding="utf-8"?>
<!-- Generator: Adobe Illustrator 24.1.2, SVG Export Plug-In . SVG Version: 6.00 Build 0)  -->
<svg version="1.1" id="Слой_1" xmlns="http://www.w3.org/2000/svg" xmlns:xlink="http://www.w3.org/1999/xlink" x="0px" y="0px"
	 viewBox="0 0 252.39 247.64" style="enable-background:new 0 0 252.39 247.64;" xml:space="preserve">
<g>
	<path d="M252.39,0c-7.36,11.32-13.38,23.86-22.34,33.74c-26.89,29.66-54.9,58.31-82.58,87.25c-2.41,2.52-3,4.6-1.76,7.97
		c5.03,13.72,1.52,28.24-9.15,37.62c-11.48,10.09-24.45,11.74-38.33,5.58c-2.74-1.22-4.43-1-6.6,1.03
		c-13.98,13.02-28.08,25.91-42.14,38.83c-0.85,0.78-1.74,1.51-3.51,3.05c11.16-25.79,27.91-46,47.43-64.63
		c4.34,9.42,11.63,14.05,21.98,13.44c9.39-0.55,18.25-8.27,20.27-17.56c2.29-10.56-2.18-20.72-11.27-25.66
		c-9.15-4.97-19.9-3.46-26.98,3.45c-4.08,3.99-0.97,7.22,0.82,10.5c-6.07,1.1-11.85,2.14-17.59,3.18
		c-1.02-5.15-2.15-10.88-3.36-16.99c5.28,1.68,8.61-1.71,12.45-5.26c10.71-9.9,23.27-11.88,36.85-6.71
		c2.69,1.02,4.58,1.58,7.12-0.75c38.63-35.47,77.38-70.82,116.1-106.2c0.61-0.55,1.07-1.26,1.61-1.89C251.72,0,252.06,0,252.39,0z"
		/>
	<path d="M0.96,28.16c22.07,15.25,43.53,31.19,61.08,51.81c5.91,6.95,7.28,6.77,15.35,2.04c16.97-9.96,34.97-13.02,54.07-7.57
		c5.51,1.57,10.14,0.36,13.46-4.06c5-6.64,9.55-13.62,14.8-21.19c-3.19,0-5.35,0-9.13,0c10.11-8.41,19.09-15.89,28.07-23.36
		c0.25,0.21,0.51,0.41,0.76,0.62c-0.48,1.16-0.89,2.37-1.45,3.49c-8.52,16.89-16.77,33.92-25.76,50.55
		c-2.99,5.53-7.88,10.03-12.58,14.77c-0.25-6.6-4.12-8.75-9.24-10.18c-17.83-4.96-34.49-2.65-49.92,7.63
		c-6.83,4.54-6.93,5.92-1.58,11.93c0.43,0.48,0.75,1.05,1.12,1.58c-0.28,0.46-0.55,0.91-0.83,1.37c-4.06-2.29-8.77-3.89-12.07-6.99
		C44.18,79.06,20.38,58.3,2.79,31.76c-0.43-0.65-1.22-1.07-1.84-1.59C0.96,29.5,0.96,28.83,0.96,28.16z"/>
	<path d="M229.33,67.27c-5.84,10.27-13.35,18-21.84,24.96c-7.04,5.77-6.91,6.15-3.91,14.46c11.3,31.29,7.72,60.86-10.41,88.7
		c-4.62,7.09-4.68,9.56,0.68,16.11c8.49,10.36,17.15,20.58,25.73,30.87c1.12,1.34,2.22,2.7,3.33,4.06
		c-0.34,0.41-0.67,0.81-1.01,1.22c-7.68-5.43-15.88-10.26-22.93-16.42c-10.83-9.46-20.67-20.06-31.33-29.74
		c-5.94-5.39-9.56-11.91-12.7-19.96c1.51,0.74,2.47,1.08,3.29,1.63c3.61,2.43,7.06,5.11,10.78,7.34c8.41,5.02,12.24,4.15,17.34-4.37
		c14.41-24.04,16.79-49.35,7.3-75.72c-2.4-6.68-5.41-7.93-12.05-4.97c-5.89,2.63-11.57,5.72-17.35,8.61
		c-0.32-0.3-0.65-0.59-0.97-0.89c4.24-4.48,7.83-9.93,12.84-13.25c16.75-11.09,34-21.41,51.07-32
		C227.6,67.68,228.1,67.64,229.33,67.27z"/>
	<path d="M147.93,30.62c-5.63,12.31-6.24,26.74-16.16,37.52c-0.64-0.69-1.01-0.9-1.02-1.12c-0.25-9.88-1.16-11.02-11.18-11.84
		c-12.68-1.03-25.09,0.35-36.99,5.16c-8.24,3.33-9.1,5.13-6.46,13.5c0.19,0.6,0.16,1.26,0.29,2.44c-4.79-1.34-8.24-3.36-10.91-7.45
		C54.44,51.88,47.01,33.3,40.9,13.86c0.92,1.12,1.9,2.19,2.76,3.36c7.56,10.25,15.3,20.37,22.54,30.84c2.75,3.97,5.9,4.83,9.85,3.26
		c15.73-6.24,31.96-8.12,48.81-7c3.34,0.22,7.24-2.69,10.31-4.94c4.02-2.94,7.48-6.66,11.18-10.04
		C146.88,29.76,147.4,30.19,147.93,30.62z"/>
	<path d="M2.87,77.63c25.7,8.08,49.32,19.58,69.49,37.33c-0.14,0.42-0.28,0.85-0.41,1.27c-6.25-2-13.13-2.95-18.64-6.2
		c-15.96-9.42-31.38-19.76-46.99-29.76C5.1,79.49,4.01,78.51,2.87,77.63z"/>
	<path d="M158.21,141.13c-0.04-6.78,4.89-11.74,11.65-11.74c6.3,0.01,11.57,5.1,11.72,11.34c0.15,6.13-5.61,11.94-11.84,11.95
		C163.6,152.69,158.25,147.32,158.21,141.13z M175.71,140.66c-2.89-1.79-4.55-3.59-6.2-3.57c-1.2,0.01-3.52,2.64-3.31,3.7
		c0.32,1.59,2.33,3.81,3.77,3.93C171.4,144.84,173.02,142.69,175.71,140.66z"/>
	<path d="M123.62,140.99c0.03,5.17-4.68,9.93-9.88,9.99c-5.74,0.07-10.3-4.31-10.35-9.95c-0.05-5.81,4.28-10.2,10.03-10.17
		C119.2,130.9,123.58,135.24,123.62,140.99z"/>
	<path d="M57.8,159.31C50.28,171.2,42.76,183.1,35.24,195c-0.55-0.26-1.1-0.51-1.66-0.77c3.14-8.28,6.28-16.55,9.37-24.7
		c-4,1.72-8.62,3.71-13.24,5.7C37.23,166.91,46.97,162.56,57.8,159.31z"/>
	<path d="M73.61,161.24c-5.72,6.78-11.43,13.57-17.15,20.35c-0.38-0.32-0.77-0.65-1.15-0.97C56.89,174.1,65.41,164.35,73.61,161.24z
		"/>
	<path d="M42.67,186.11c4.62-5.12,9.24-10.24,13.87-15.37C56.3,176.94,49.45,184.75,42.67,186.11z"/>
</g>
</svg>
